<svg width="146" height="33" viewBox="0 0 146 33" fill="none" xmlns="http://www.w3.org/2000/svg">
<path d="M54.712 17.408C54.712 19.328 54.368 20.992 53.68 22.4C52.992 23.792 51.928 24.816 50.488 25.472L54.616 30.08H49.96L46.816 26.24H46.552C44.696 26.24 43.16 25.872 41.944 25.136C40.744 24.4 39.848 23.368 39.256 22.04C38.68 20.712 38.392 19.16 38.392 17.384C38.392 15.608 38.68 14.064 39.256 12.752C39.848 11.44 40.744 10.424 41.944 9.704C43.16 8.968 44.704 8.6 46.576 8.6C48.432 8.6 49.96 8.968 51.16 9.704C52.36 10.424 53.248 11.448 53.824 12.776C54.416 14.088 54.712 15.632 54.712 17.408ZM42.208 17.408C42.208 19.2 42.552 20.616 43.24 21.656C43.928 22.68 45.032 23.192 46.552 23.192C48.104 23.192 49.216 22.68 49.888 21.656C50.56 20.616 50.896 19.2 50.896 17.408C50.896 15.6 50.56 14.184 49.888 13.16C49.216 12.136 48.112 11.624 46.576 11.624C45.04 11.624 43.928 12.136 43.24 13.16C42.552 14.184 42.208 15.6 42.208 17.408ZM72.2056 19.952C72.2056 21.136 71.9416 22.208 71.4136 23.168C70.9016 24.112 70.1176 24.864 69.0616 25.424C68.0216 25.968 66.7016 26.24 65.1016 26.24C62.8296 26.24 61.1016 25.664 59.9176 24.512C58.7336 23.344 58.1416 21.808 58.1416 19.904V8.864H61.7656V19.352C61.7656 20.76 62.0536 21.752 62.6296 22.328C63.2056 22.904 64.0616 23.192 65.1976 23.192C66.3816 23.192 67.2376 22.88 67.7656 22.256C68.3096 21.632 68.5816 20.656 68.5816 19.328V8.864H72.2056V19.952ZM86.2662 26H76.4022V8.864H86.2662V11.84H80.0262V15.608H85.8342V18.584H80.0262V23H86.2662V26ZM96.2399 26H88.4399V23.936L90.5279 22.976V11.888L88.4399 10.928V8.864H96.2399V10.928L94.1519 11.888V22.976L96.2399 23.936V26ZM104.152 8.864C106.488 8.864 108.208 9.288 109.312 10.136C110.432 10.984 110.992 12.272 110.992 14C110.992 14.784 110.84 15.472 110.536 16.064C110.248 16.64 109.856 17.136 109.36 17.552C108.88 17.952 108.36 18.28 107.8 18.536L112.84 26H108.808L104.728 19.424H102.784V26H99.16V8.864H104.152ZM103.888 11.84H102.784V16.472H103.96C105.16 16.472 106.016 16.272 106.528 15.872C107.056 15.472 107.32 14.88 107.32 14.096C107.32 13.28 107.04 12.704 106.48 12.368C105.936 12.016 105.072 11.84 103.888 11.84ZM130.556 17.408C130.556 19.184 130.26 20.736 129.668 22.064C129.092 23.376 128.204 24.4 127.004 25.136C125.804 25.872 124.268 26.24 122.396 26.24C120.54 26.24 119.004 25.872 117.788 25.136C116.588 24.4 115.692 23.368 115.1 22.04C114.524 20.712 114.236 19.16 114.236 17.384C114.236 15.608 114.524 14.064 115.1 12.752C115.692 11.44 116.588 10.424 117.788 9.704C119.004 8.968 120.548 8.6 122.42 8.6C124.276 8.6 125.804 8.968 127.004 9.704C128.204 10.424 129.092 11.448 129.668 12.776C130.26 14.088 130.556 15.632 130.556 17.408ZM118.052 17.408C118.052 19.2 118.396 20.616 119.084 21.656C119.772 22.68 120.876 23.192 122.396 23.192C123.948 23.192 125.06 22.68 125.732 21.656C126.404 20.616 126.74 19.2 126.74 17.408C126.74 15.6 126.404 14.184 125.732 13.16C125.06 12.136 123.956 11.624 122.42 11.624C120.884 11.624 119.772 12.136 119.084 13.16C118.396 14.184 118.052 15.6 118.052 17.408ZM145.031 26H132.287V23.648L140.495 11.864H132.503V8.864H144.815V11.216L136.607 23H145.031V26Z" fill="black"/>
<path d="M12.456 10.304L12.1111 10.6661L12.1171 10.6716L12.456 10.304ZM13.368 17.024L13.8185 17.2409L13.82 17.2377L13.368 17.024ZM11.28 19.112L11.0421 18.6722L11.039 18.6739L11.28 19.112ZM5.784 19.904V19.404H5.284V19.904H5.784ZM5.784 26V26.5H6.284V26H5.784ZM2.16 26H1.66V26.5H2.16V26ZM2.16 8.864V8.364H1.66V8.864H2.16ZM5.784 11.84V11.34H5.284V11.84H5.784ZM5.784 16.928H5.284V17.428H5.784V16.928ZM9.408 16.328L9.68793 16.7423L9.69034 16.7407L9.408 16.328ZM7.632 9.364C9.78378 9.364 11.2378 9.83427 12.1112 10.6661L12.8008 9.94193C11.6582 8.85373 9.89622 8.364 7.632 8.364V9.364ZM12.1171 10.6716C13.0185 11.5026 13.492 12.6621 13.492 14.216H14.492C14.492 12.4419 13.9415 10.9934 12.7949 9.93638L12.1171 10.6716ZM13.492 14.216C13.492 15.1356 13.2998 15.9984 12.916 16.8103L13.82 17.2377C14.2682 16.2896 14.492 15.2804 14.492 14.216H13.492ZM12.9175 16.8071C12.5541 17.5619 11.9406 18.1861 11.0421 18.6722L11.5179 19.5518C12.5714 18.9819 13.3499 18.2141 13.8185 17.2409L12.9175 16.8071ZM11.039 18.6739C10.1814 19.1456 8.96385 19.404 7.344 19.404V20.404C9.05215 20.404 10.4586 20.1344 11.521 19.5501L11.039 18.6739ZM7.344 19.404H5.784V20.404H7.344V19.404ZM5.284 19.904V26H6.284V19.904H5.284ZM5.784 25.5H2.16V26.5H5.784V25.5ZM2.66 26V8.864H1.66V26H2.66ZM2.16 9.364H7.632V8.364H2.16V9.364ZM7.44 11.34H5.784V12.34H7.44V11.34ZM5.284 11.84V16.928H6.284V11.84H5.284ZM5.784 17.428H6.984V16.428H5.784V17.428ZM6.984 17.428C8.06644 17.428 8.98461 17.2175 9.68793 16.7423L9.12807 15.9137C8.64739 16.2385 7.94956 16.428 6.984 16.428V17.428ZM9.69034 16.7407C10.4675 16.2089 10.82 15.3686 10.82 14.336H9.82C9.82 15.1274 9.56446 15.6151 9.12566 15.9153L9.69034 16.7407ZM10.82 14.336C10.82 13.4068 10.5486 12.6245 9.92747 12.0862C9.31997 11.5597 8.46092 11.34 7.44 11.34V12.34C8.33908 12.34 8.92003 12.5363 9.27253 12.8418C9.61136 13.1355 9.82 13.6012 9.82 14.336H10.82ZM24.4783 26L24.0003 26.1468L24.1088 26.5H24.4783V26ZM20.3503 12.56L20.8283 12.4132L20.7198 12.06H20.3503V12.56ZM20.2543 12.56V12.06H19.7287L19.7549 12.585L20.2543 12.56ZM20.3263 14L19.8269 14.025L19.8269 14.025L20.3263 14ZM20.4223 16.064L19.9228 16.0857L19.9228 16.0862L20.4223 16.064ZM20.4703 26V26.5H20.9703V26H20.4703ZM17.2303 26H16.7303V26.5H17.2303V26ZM17.2303 8.864V8.364H16.7303V8.864H17.2303ZM22.1743 8.864L22.652 8.71616L22.543 8.364H22.1743V8.864ZM26.2303 21.968L25.7527 22.1158L25.8617 22.468H26.2303V21.968ZM26.3023 21.968V22.468H26.6646L26.7774 22.1238L26.3023 21.968ZM30.5983 8.864V8.364H30.236L30.1232 8.70824L30.5983 8.864ZM35.5423 8.864H36.0423V8.364H35.5423V8.864ZM35.5423 26V26.5H36.0423V26H35.5423ZM32.1583 26H31.6583V26.5H32.1583V26ZM32.1823 16.016L31.6827 15.9933L31.6824 16.0046L32.1823 16.016ZM32.2543 14.024L31.7548 13.999L31.7545 14.0112L32.2543 14.024ZM32.3263 12.584L32.8257 12.609L32.8519 12.084H32.3263V12.584ZM32.2303 12.584V12.084H31.8685L31.7554 12.4277L32.2303 12.584ZM27.8143 26V26.5H28.1761L28.2892 26.1563L27.8143 26ZM24.9563 25.8532L20.8283 12.4132L19.8723 12.7068L24.0003 26.1468L24.9563 25.8532ZM20.3503 12.06H20.2543V13.06H20.3503V12.06ZM19.7549 12.585C19.7709 12.905 19.7949 13.385 19.8269 14.025L20.8257 13.975C20.7937 13.335 20.7697 12.855 20.7537 12.535L19.7549 12.585ZM19.8269 14.025C19.8589 14.6637 19.8908 15.3506 19.9228 16.0857L20.9218 16.0423C20.8898 15.3054 20.8578 14.6163 20.8257 13.975L19.8269 14.025ZM19.9228 16.0862C19.9545 16.8003 19.9703 17.4488 19.9703 18.032H20.9703C20.9703 17.4312 20.9541 16.7677 20.9218 16.0418L19.9228 16.0862ZM19.9703 18.032V26H20.9703V18.032H19.9703ZM20.4703 25.5H17.2303V26.5H20.4703V25.5ZM17.7303 26V8.864H16.7303V26H17.7303ZM17.2303 9.364H22.1743V8.364H17.2303V9.364ZM21.6967 9.01184L25.7527 22.1158L26.708 21.8202L22.652 8.71616L21.6967 9.01184ZM26.2303 22.468H26.3023V21.468H26.2303V22.468ZM26.7774 22.1238L31.0734 9.01976L30.1232 8.70824L25.8272 21.8122L26.7774 22.1238ZM30.5983 9.364H35.5423V8.364H30.5983V9.364ZM35.0423 8.864V26H36.0423V8.864H35.0423ZM35.5423 25.5H32.1583V26.5H35.5423V25.5ZM32.6583 26V17.888H31.6583V26H32.6583ZM32.6583 17.888C32.6583 17.3487 32.6662 16.7286 32.6822 16.0274L31.6824 16.0046C31.6664 16.7114 31.6583 17.3393 31.6583 17.888H32.6583ZM32.6818 16.0387C32.7139 15.3318 32.7381 14.6645 32.7541 14.0368L31.7545 14.0112C31.7386 14.6315 31.7147 15.2922 31.6828 15.9933L32.6818 16.0387ZM32.7537 14.049C32.7857 13.409 32.8097 12.929 32.8257 12.609L31.8269 12.559C31.8109 12.879 31.7869 13.359 31.7549 13.999L32.7537 14.049ZM32.3263 12.084H32.2303V13.084H32.3263V12.084ZM31.7554 12.4277L27.3394 25.8437L28.2892 26.1563L32.7052 12.7403L31.7554 12.4277ZM27.8143 25.5H24.4783V26.5H27.8143V25.5Z" fill="black"/>
</svg>
